<svg width="52" height="52" viewBox="0 0 52 52" fill="none" xmlns="http://www.w3.org/2000/svg">
<g clip-path="url(#clip0_10513_15616)">
<path d="M38.82 0.431892H26V13.2519H38.82V0.431892Z" fill="#5BBB87"/>
<path d="M26 26H13.18V38.82H26V26Z" fill="#5BBB87"/>
<path d="M38.82 26H26V38.82H38.82V26Z" fill="#5BBB87"/>
<path d="M26 13.18H13.18V26H26V13.18Z" fill="#5BBB87"/>
<path d="M38.82 13.18H26V26H38.82V13.18Z" fill="#5BBB87"/>
<path d="M26 0.431892H13.18V13.2519H26V0.431892Z" fill="#5BBB87"/>
<path d="M26 38.82H13.18V51.6401H26V38.82Z" fill="#5BBB87"/>
<path d="M38.82 38.82H26V51.6401H38.82V38.82Z" fill="#5BBB87"/>
<g opacity="0.6">
<path d="M51.82 0.431892H39V13.2519H51.82V0.431892Z" fill="#FEFEFE"/>
<path d="M12.82 26H0V38.82H12.82V26Z" fill="#FEFEFE"/>
<path d="M51.82 26H39V38.82H51.82V26Z" fill="#FEFEFE"/>
<path d="M12.82 13.18H0V26H12.82V13.18Z" fill="#FEFEFE"/>
<path d="M51.82 13.18H39V26H51.82V13.18Z" fill="#FEFEFE"/>
<path d="M12.82 0.431892H0V13.2519H12.82V0.431892Z" fill="#FEFEFE"/>
<path d="M12.82 38.82H0V51.6401H12.82V38.82Z" fill="#FEFEFE"/>
<path d="M51.82 38.82H39V51.6401H51.82V38.82Z" fill="#FEFEFE"/>
</g>
<path d="M8.96898 9.11296H7.99002L7.60132 8.09801H5.81616L5.44905 9.11296H4.49168L6.23366 4.64286H7.19102L8.98338 9.11296H8.96898ZM7.30619 7.34219L6.68714 5.6866L6.08249 7.34219H7.29899H7.30619Z" fill="#1A1A1A"/>
<path d="M5.00996 34.6667V30.1966H6.9103C7.38538 30.1966 7.73809 30.2398 7.95404 30.3189C8.16999 30.3981 8.34274 30.5421 8.47231 30.7436C8.60188 30.9452 8.66666 31.1827 8.66666 31.4491C8.66666 31.7874 8.56589 32.0609 8.37154 32.2769C8.17718 32.4928 7.88206 32.6296 7.48615 32.6872C7.68051 32.8023 7.83887 32.9247 7.96844 33.0615C8.098 33.1982 8.26356 33.4358 8.47951 33.7885L9.02658 34.6595H7.94684L7.2918 33.6877C7.06146 33.3422 6.9031 33.119 6.81672 33.0327C6.73034 32.9391 6.64396 32.8815 6.54319 32.8455C6.44961 32.8095 6.29845 32.7951 6.0897 32.7951H5.90974V34.6595H5.00996V34.6667ZM5.90974 32.0897H6.57918C7.01107 32.0897 7.2846 32.0681 7.39258 32.0321C7.50055 31.9961 7.58693 31.9313 7.64452 31.845C7.7021 31.7586 7.73809 31.6434 7.73809 31.5066C7.73809 31.3555 7.6949 31.2331 7.61572 31.1395C7.53654 31.046 7.42137 30.9884 7.27741 30.9668C7.20542 30.9596 6.98228 30.9524 6.61517 30.9524H5.90974V32.0897Z" fill="#1A1A1A"/>
<path d="M43.7004 47.5803V43.1102H45.6008C46.0759 43.1102 46.4286 43.1534 46.6445 43.2326C46.8605 43.3117 47.0332 43.4557 47.1628 43.6573C47.2924 43.8588 47.3571 44.0963 47.3571 44.3627C47.3571 44.701 47.2564 44.9745 47.062 45.1905C46.8677 45.4064 46.5725 45.5432 46.1766 45.6008C46.371 45.7159 46.5293 45.8383 46.6589 45.9751C46.7885 46.1118 46.954 46.3494 47.17 46.7021L47.7171 47.5731H46.6373L45.9823 46.6013C45.7519 46.2558 45.5936 46.0327 45.5072 45.9463C45.4208 45.8527 45.3344 45.7951 45.2337 45.7591C45.1401 45.7231 44.9889 45.7087 44.7802 45.7087H44.6002V47.5731H43.7004V47.5803ZM44.6002 45.0033H45.2697C45.7015 45.0033 45.9751 44.9817 46.0831 44.9457C46.191 44.9097 46.2774 44.845 46.335 44.7586C46.3926 44.6722 46.4286 44.557 46.4286 44.4203C46.4286 44.2691 46.3854 44.1467 46.3062 44.0532C46.227 43.9596 46.1118 43.902 45.9679 43.8804C45.8959 43.8732 45.6728 43.866 45.3056 43.866H44.6002V45.0033Z" fill="#1A1A1A"/>
<path d="M5.22592 47.5803V43.1102H6.67276C7.21983 43.1102 7.57974 43.1318 7.7453 43.175C8.00443 43.2398 8.21318 43.3909 8.38594 43.6141C8.5587 43.8372 8.64508 44.1323 8.64508 44.485C8.64508 44.7586 8.59469 44.9889 8.49391 45.1761C8.39314 45.3632 8.27077 45.5072 8.11241 45.6152C7.96124 45.7231 7.80288 45.7951 7.64452 45.8239C7.42858 45.8671 7.11905 45.8887 6.70875 45.8887H6.1185V47.5731H5.21872L5.22592 47.5803ZM6.1257 43.866V45.1329H6.62237C6.97509 45.1329 7.21263 45.1113 7.335 45.0609C7.45737 45.0177 7.55095 44.9385 7.61573 44.845C7.68051 44.7442 7.7165 44.629 7.7165 44.4994C7.7165 44.3339 7.66612 44.2043 7.57254 44.0963C7.47896 43.9884 7.35659 43.9236 7.21263 43.902C7.10466 43.8804 6.88871 43.8732 6.56479 43.8732H6.1257V43.866Z" fill="#1A1A1A"/>
<path d="M6.94629 17.1966H7.84607V20.0255C7.84607 20.3926 7.81728 20.6805 7.74529 20.8821C7.65892 21.1412 7.50055 21.3499 7.27021 21.5083C7.03987 21.6667 6.73754 21.7458 6.36323 21.7458C5.92414 21.7458 5.58583 21.6235 5.34828 21.3787C5.11074 21.134 4.98837 20.7669 4.98837 20.2918L5.83776 20.191C5.84496 20.4502 5.88815 20.6301 5.95294 20.7309C6.05371 20.8893 6.19768 20.9684 6.39923 20.9684C6.60078 20.9684 6.74474 20.9109 6.82392 20.7957C6.9103 20.6805 6.94629 20.443 6.94629 20.0831V17.1966Z" fill="#1A1A1A"/>
<path d="M43.5637 30.2182H44.4635V32.6368C44.4635 33.0183 44.4778 33.2702 44.4994 33.3854C44.5354 33.5653 44.629 33.7165 44.773 33.8245C44.9169 33.9324 45.1185 33.99 45.3704 33.99C45.6224 33.99 45.8167 33.9396 45.9463 33.8317C46.0759 33.7237 46.155 33.6013 46.1838 33.443C46.2126 33.2846 46.227 33.0399 46.227 32.6872V30.2182H47.1268V32.5648C47.1268 33.1046 47.1052 33.479 47.0548 33.7021C47.0044 33.9252 46.918 34.1124 46.7813 34.2636C46.6517 34.4147 46.4718 34.5371 46.2558 34.6307C46.0399 34.7243 45.7519 34.7674 45.3992 34.7674C44.9745 34.7674 44.6506 34.7171 44.4275 34.6163C44.2043 34.5155 44.0316 34.3931 43.902 34.2348C43.7724 34.0764 43.6932 33.9108 43.6501 33.7381C43.5925 33.479 43.5637 33.1046 43.5637 32.6008V30.2182Z" fill="#1A1A1A"/>
<path d="M44.7442 21.6667V17.1966H45.644V21.6667H44.7442Z" fill="#1A1A1A"/>
<path d="M44.0388 9.11296V4.67885H44.9385V8.35714H47.1844V9.11296H44.0388Z" fill="#1A1A1A"/>
<path d="M0 0V52H52V0H0ZM26.3671 0.727021H38.4529V12.8128H26.3671V0.727021ZM38.4529 25.6329H26.3671V13.5471H38.4529V25.6329ZM38.4529 38.4529H26.3671V26.3671H38.4529V38.4529ZM13.5471 26.3671H25.6329V38.4529H13.5471V26.3671ZM13.5471 13.5471H25.6329V25.6329H13.5471V13.5471ZM13.5471 0.727021H25.6329V12.8128H13.5471V0.727021ZM0.727021 0.727021H12.8128V12.8128H0.727021V0.727021ZM0.727021 13.5471H12.8128V25.6329H0.727021V13.5471ZM0.727021 26.3671H12.8128V38.4529H0.727021V26.3671ZM12.8128 51.273H0.727021V39.1872H12.8128V51.273ZM25.6329 51.273H13.5471V39.1872H25.6329V51.273ZM38.4529 51.273H26.3671V39.1872H38.4529V51.273ZM51.273 51.273H39.1872V39.1872H51.273V51.273ZM51.273 38.4529H39.1872V26.3671H51.273V38.4529ZM51.273 25.6329H39.1872V13.5471H51.273V25.6329ZM39.1872 12.8128V0.727021H51.273V12.8128H39.1872Z" fill="#1A1A1A"/>
</g>
<defs>
<clipPath id="clip0_10513_15616">
<rect width="52" height="52" fill="white"/>
</clipPath>
</defs>
</svg>

