<?xml version="1.0" encoding="UTF-8"?>
<svg xmlns="http://www.w3.org/2000/svg" xmlns:xlink="http://www.w3.org/1999/xlink" width="0" height="0">
<defs>
<symbol viewBox="0 0 24 24" id="google-color">
            <g clip-path="url(#clip0_5073_2547)">
                <path
                    d="M21.8055 10.0415H21V10H12V14H17.6515C16.827 16.3285 14.6115 18 12 18C8.6865 18 6 15.3135 6 12C6 8.6865 8.6865 6 12 6C13.5295 6 14.921 6.577 15.9805 7.5195L18.809 4.691C17.023 3.0265 14.634 2 12 2C6.4775 2 2 6.4775 2 12C2 17.5225 6.4775 22 12 22C17.5225 22 22 17.5225 22 12C22 11.3295 21.931 10.675 21.8055 10.0415Z"
                    fill="#FFC107"></path>
                <path
                    d="M3.15308 7.3455L6.43858 9.755C7.32758 7.554 9.48058 6 12.0001 6C13.5296 6 14.9211 6.577 15.9806 7.5195L18.8091 4.691C17.0231 3.0265 14.6341 2 12.0001 2C8.15908 2 4.82808 4.1685 3.15308 7.3455Z"
                    fill="#FF3D00"></path>
                <path
                    d="M11.9999 22C14.5829 22 16.9299 21.0115 18.7044 19.404L15.6094 16.785C14.6054 17.5455 13.3574 18 11.9999 18C9.39891 18 7.19041 16.3415 6.35841 14.027L3.09741 16.5395C4.75241 19.778 8.11341 22 11.9999 22Z"
                    fill="#4CAF50"></path>
                <path
                    d="M21.8055 10.0415H21V10H12V14H17.6515C17.2555 15.1185 16.536 16.083 15.608 16.7855L15.6095 16.7845L18.7045 19.4035C18.4855 19.6025 22 17 22 12C22 11.3295 21.931 10.675 21.8055 10.0415Z"
                    fill="#1976D2"></path>
            </g>
            <defs>
                <clipPath id="clip0_5073_2547">
                    <rect width="24" height="24" fill="white"></rect>
                </clipPath>
            </defs>
        </symbol>
        <symbol viewBox="0 0 27 35" id="pinColor">
            <path
                d="M0 2C0 0.89543 0.895431 0 2 0H25C26.1046 0 27 0.895431 27 2V21.5C27 28.9558 20.9558 35 13.5 35C6.04416 35 0 28.9558 0 21.5V2Z"
                fill="#99151D"></path>
            <path
                d="M18.75 11.625V13.375H17.875V18.625L19.625 21.25V23H14.375V29.125H12.625V23H7.375V21.25L9.125 18.625V13.375H8.25V11.625H18.75Z"
                fill="white"></path>
        </symbol>
        <symbol viewBox="0 0 28 32" id="ribbon-color">
            <path
                d="M0 2C0 0.895431 0.895431 0 2 0H26C27.1046 0 28 0.895431 28 2V18C28 25.732 21.732 32 14 32C6.26801 32 0 25.732 0 18V2Z"
                fill="#FDB727"></path>
            <path fill-rule="evenodd" clip-rule="evenodd"
                d="M14.991 13.8921C15.2038 13.6558 15.3333 13.343 15.3333 13C15.3333 12.2636 14.7364 11.6667 14 11.6667C13.2636 11.6667 12.6667 12.2636 12.6667 13C12.6667 13.343 12.7962 13.6558 13.009 13.8921L10.9004 16.6914L8.64075 15.2629C8.65775 15.1779 8.66667 15.09 8.66667 15C8.66667 14.2636 8.06971 13.6667 7.33333 13.6667C6.59695 13.6667 6 14.2636 6 15C6 15.7364 6.59695 16.3333 7.33333 16.3333C7.36509 16.3333 7.39658 16.3322 7.42778 16.33L8.35631 23.8142C8.39305 24.1102 8.65764 24.3333 8.97199 24.3333H19.0281C19.3424 24.3333 19.607 24.1102 19.6438 23.8142L20.5723 16.33C20.6035 16.3322 20.6349 16.3333 20.6667 16.3333C21.403 16.3333 22 15.7364 22 15C22 14.2636 21.403 13.6667 20.6667 13.6667C19.9303 13.6667 19.3333 14.2636 19.3333 15C19.3333 15.09 19.3423 15.1779 19.3593 15.263L17.0997 16.6914L14.991 13.8921Z"
                fill="#0D0D0D"></path>
        </symbol>
        <symbol viewBox="0 0 32 32" id="subscriber">
            <rect width="32" height="32" rx="16" fill="#FDB727"></rect>
            <path fill-rule="evenodd" clip-rule="evenodd"
                d="M16.991 11.8921C17.2038 11.6558 17.3333 11.343 17.3333 11C17.3333 10.2636 16.7364 9.66669 16 9.66669C15.2636 9.66669 14.6667 10.2636 14.6667 11C14.6667 11.3431 14.7962 11.6558 15.009 11.8921L12.9004 14.6914L10.6407 13.2629C10.6577 13.1779 10.6667 13.09 10.6667 13C10.6667 12.2636 10.0697 11.6667 9.33333 11.6667C8.59695 11.6667 8 12.2636 8 13C8 13.7364 8.59695 14.3334 9.33333 14.3334C9.36509 14.3334 9.39658 14.3322 9.42778 14.3301L10.3563 21.8142C10.393 22.1102 10.6576 22.3334 10.972 22.3334H21.0281C21.3424 22.3334 21.607 22.1102 21.6438 21.8142L22.5723 14.3301C22.6035 14.3322 22.6349 14.3334 22.6667 14.3334C23.403 14.3334 24 13.7364 24 13C24 12.2636 23.403 11.6667 22.6667 11.6667C21.9303 11.6667 21.3333 12.2636 21.3333 13C21.3333 13.09 21.3423 13.178 21.3593 13.263L19.0997 14.6914L16.991 11.8921Z"
                fill="#0D0D0D"></path>
        </symbol>
        <symbol viewBox="0 0 16 17" id="subscriber-inverted">
            <rect y="0.5" width="16" height="16" rx="8" fill="#0D0D0D"></rect>
            <g clip-path="url(#clip0_18177_201)">
                <path fill-rule="evenodd" clip-rule="evenodd"
                    d="M8.47559 6.51655C8.57774 6.40314 8.63991 6.25301 8.63991 6.08836C8.63991 5.7349 8.35337 5.44836 7.99991 5.44836C7.64645 5.44836 7.35991 5.7349 7.35991 6.08836C7.35991 6.25302 7.42209 6.40316 7.52426 6.51657L6.51211 7.86024L5.42747 7.17457C5.43563 7.13377 5.43991 7.09157 5.43991 7.04836C5.43991 6.6949 5.15337 6.40836 4.79991 6.40836C4.44645 6.40836 4.15991 6.6949 4.15991 7.04836C4.15991 7.40183 4.44645 7.68836 4.79991 7.68836C4.81515 7.68836 4.83027 7.68783 4.84524 7.68678L5.29094 11.2792C5.30857 11.4213 5.43558 11.5284 5.58647 11.5284H10.4134C10.5643 11.5284 10.6913 11.4213 10.7089 11.2792L11.1546 7.68679C11.1696 7.68783 11.1847 7.68836 11.1999 7.68836C11.5534 7.68836 11.8399 7.40183 11.8399 7.04836C11.8399 6.6949 11.5534 6.40836 11.1999 6.40836C10.8464 6.40836 10.5599 6.6949 10.5599 7.04836C10.5599 7.09157 10.5642 7.13378 10.5724 7.17458L9.48776 7.86024L8.47559 6.51655Z"
                    fill="#FDB727"></path>
            </g>
            <defs>
                <clipPath id="clip0_18177_201">
                    <rect width="7.68" height="7.68" fill="white"
                        transform="translate(4.15991 4.64838)"></rect>
                </clipPath>
            </defs>
        </symbol>
        <symbol viewBox="0 0 24 24" id="ia-star">
            <path d="M10.8604 16.7376L11.5825 15.0914C12.2251 13.6265 13.3818 12.4603 14.8245 11.8229L16.8121 10.9447C17.4439 10.6656 17.4439 9.75056 16.8121 9.47138L14.8866 8.62065C13.4067 7.96681 12.2293 6.75749 11.5977 5.24258L10.8663 3.48826C10.5949 2.83724 9.69114 2.83725 9.41972 3.48826L8.68827 5.24256C8.05664 6.75749 6.87926 7.96681 5.39939 8.62065L3.47393 9.47138C2.84202 9.75056 2.84202 10.6656 3.47393 10.9447L5.46147 11.8229C6.90423 12.4603 8.06087 13.6265 8.70347 15.0914L9.42556 16.7376C9.70313 17.3703 10.5828 17.3703 10.8604 16.7376ZM18.09 20.7457L18.293 20.2824C18.655 19.4564 19.307 18.7987 20.1206 18.439L20.7462 18.1623C21.0846 18.0127 21.0846 17.5232 20.7462 17.3736L20.1556 17.1123C19.3211 16.7433 18.6574 16.0613 18.3016 15.2073L18.0931 14.7066C17.9477 14.3578 17.4631 14.3578 17.3177 14.7066L17.1092 15.2073C16.7535 16.0613 16.0898 16.7433 15.2552 17.1123L14.6646 17.3736C14.3263 17.5232 14.3263 18.0127 14.6646 18.1623L15.2902 18.439C16.1038 18.7987 16.7558 19.4564 17.1178 20.2824L17.3209 20.7457C17.4695 21.0848 17.9413 21.0848 18.09 20.7457Z" fill="#27D2BE"></path>
        </symbol>
</defs>
</svg>