<svg width="45" height="21" viewBox="0 0 45 21" fill="none" xmlns="http://www.w3.org/2000/svg">
<path fill-rule="evenodd" clip-rule="evenodd" d="M0 19.5566V21H18.4456V12.6395H16.9228V13.5444C16.9228 18.3184 13.6952 19.5566 9.64872 19.5566H8.92412V1.44197H12.3173V0H0V1.44197H3.08045V19.5566H0ZM20.8727 19.5566V21H28.4931V19.5566H27.8953C25.9622 19.5566 25.193 19.2684 25.193 17.5691V4.08892H25.263L38.6422 21H41.1928V3.04474C41.1928 2.29628 41.8422 1.44197 43.4222 1.44197H44.1724V0H36.5369V1.44197H37.4593C38.9991 1.44197 39.8358 1.99328 39.8358 3.13721V12.4072H39.765L29.9142 0H20.9797V1.44197H21.5074C22.6683 1.44197 23.8544 2.36577 23.8544 3.79V17.4135C23.8544 19.23 22.8439 19.5566 21.7685 19.5566H20.8727Z" fill="#006998"/>
</svg>
